<?xml version="1.0" encoding="UTF-8"?>
<!DOCTYPE svg PUBLIC "-//W3C//DTD SVG 1.1//EN" "http://www.w3.org/Graphics/SVG/1.1/DTD/svg11.dtd">
<!-- Creator: CorelDRAW X6 -->
<svg xmlns="http://www.w3.org/2000/svg" xml:space="preserve" width="1.64627in" height="0.486106in" version="1.1" style="shape-rendering:geometricPrecision; text-rendering:geometricPrecision; image-rendering:optimizeQuality; fill-rule:evenodd; clip-rule:evenodd"
viewBox="0 0 5868 1733"
 xmlns:xlink="http://www.w3.org/1999/xlink">
 <defs>
  <style type="text/css">
   <![CDATA[
    .fil2 {fill:#4DC900}
    .fil0 {fill:#333333;fill-rule:nonzero}
    .fil1 {fill:#4DC900;fill-rule:nonzero}
   ]]>
  </style>
 </defs>
 <g id="Layer_x0020_1">
  <metadata id="CorelCorpID_0Corel-Layer"/>
  <g id="_960288368">
   <path class="fil0" d="M532 514c0,35 -9,66 -28,93 -18,26 -42,47 -73,61 -31,15 -65,23 -102,23l-328 0 0 -686 344 0c32,0 60,8 84,25 24,17 42,39 54,66 13,27 19,55 19,84 0,33 -8,65 -25,94 -18,29 -42,51 -74,65 40,12 71,33 94,64 23,31 35,68 35,111zm-89 -16c0,-21 -5,-41 -14,-59 -9,-18 -22,-32 -38,-43 -16,-11 -34,-16 -55,-16l-247 0 0 235 240 0c22,0 41,-5 58,-16 17,-11 31,-25 41,-43 10,-18 15,-37 15,-58zm-354 -418l0 229 220 0c20,0 39,-5 55,-15 16,-11 28,-25 38,-42 9,-17 14,-36 14,-57 0,-22 -5,-41 -13,-58 -9,-17 -21,-31 -36,-41 -16,-11 -33,-16 -52,-16l-226 0z"/>
   <path id="1" class="fil0" d="M850 5l74 0 283 686 -94 0 -78 -201 -297 0 -78 201 -93 0 283 -686zm159 417l-122 -317 -123 317 245 0z"/>
   <path id="2" class="fil0" d="M1229 342c0,-42 7,-83 22,-123 14,-40 36,-77 64,-110 28,-34 63,-60 104,-80 41,-19 87,-29 139,-29 62,0 115,14 159,42 44,28 77,64 98,108l-69 44c-14,-29 -31,-52 -52,-69 -21,-17 -44,-29 -68,-36 -25,-7 -48,-11 -72,-11 -38,0 -72,8 -102,23 -29,16 -54,36 -74,62 -20,26 -35,55 -45,87 -10,32 -15,64 -15,96 0,35 6,69 18,102 12,33 28,62 50,87 21,25 46,45 76,60 29,15 61,22 95,22 24,0 49,-4 74,-12 25,-9 49,-22 71,-40 22,-17 40,-40 53,-69l73 40c-14,34 -37,63 -66,87 -30,24 -63,42 -100,54 -37,12 -73,18 -109,18 -47,0 -91,-10 -130,-30 -40,-20 -74,-47 -103,-81 -29,-34 -51,-72 -67,-114 -16,-42 -24,-85 -24,-128z"/>
   <polygon id="3" class="fil0" points="1938,691 1938,5 2026,5 2026,384 2382,4 2476,4 2199,307 2492,691 2394,691 2143,359 2026,481 2026,691 "/>
   <polygon class="fil0" points="122,859 387,1311 654,859 775,859 442,1410 442,1727 331,1727 331,1408 0,859 "/>
   <path id="1" class="fil0" d="M1194 1733c-62,0 -118,-12 -168,-37 -50,-24 -93,-57 -130,-99 -36,-42 -65,-90 -84,-142 -20,-53 -30,-107 -30,-162 0,-58 11,-113 32,-165 20,-53 50,-100 87,-141 37,-41 81,-74 131,-98 50,-24 105,-36 164,-36 62,0 117,13 167,38 51,25 94,59 130,102 36,42 64,89 84,141 19,52 29,106 29,160 0,58 -10,113 -31,166 -20,52 -49,99 -87,140 -37,41 -81,74 -131,97 -50,24 -104,36 -163,36zm-300 -440c0,44 7,87 22,128 14,41 34,77 61,109 26,32 58,57 95,76 37,19 78,28 123,28 47,0 88,-10 125,-29 37,-20 69,-46 95,-79 25,-32 45,-69 59,-110 13,-40 20,-81 20,-123 0,-44 -7,-86 -22,-127 -14,-41 -34,-77 -61,-109 -27,-33 -58,-58 -95,-76 -36,-18 -77,-28 -121,-28 -47,0 -89,10 -126,29 -37,19 -68,45 -94,78 -26,32 -46,69 -60,109 -14,40 -21,82 -21,124z"/>
   <path id="2" class="fil0" d="M2121 1733c-70,0 -129,-12 -176,-36 -48,-24 -86,-57 -115,-98 -28,-41 -49,-88 -63,-140 -13,-52 -19,-106 -19,-161l0 -439 111 0 0 439c0,42 4,84 13,124 8,40 22,76 42,108 20,32 46,57 80,76 34,19 76,28 126,28 51,0 93,-10 127,-29 33,-19 60,-45 80,-77 19,-32 34,-68 42,-108 9,-40 13,-81 13,-122l0 -439 111 0 0 439c0,59 -7,114 -20,167 -14,52 -35,98 -65,138 -30,40 -68,72 -115,95 -47,23 -105,35 -172,35z"/>
  </g>
  <g id="_960290992">
   <path class="fil1" d="M3494 1731c-138,0 -255,-24 -350,-70 -95,-47 -172,-111 -229,-191 -58,-81 -100,-173 -127,-276 -27,-103 -40,-210 -40,-322l0 -870 273 0 0 870c0,79 8,156 24,229 16,73 42,139 78,197 36,58 84,104 145,138 61,34 136,51 226,51 91,0 167,-18 228,-52 61,-35 109,-82 144,-141 35,-58 60,-124 76,-197 17,-72 25,-147 25,-225l0 -532 275 0 0 532c0,118 -14,229 -42,333 -29,104 -73,195 -132,273 -59,78 -136,140 -230,185 -95,45 -209,68 -344,68zm1112 -12l0 -1717 726 0c78,0 150,16 215,48 65,33 122,75 170,128 49,54 86,113 112,179 26,66 39,134 39,204 0,95 -21,185 -64,272 -43,86 -104,156 -183,209 -79,53 -170,79 -274,79l-468 0 0 598 -273 0zm273 -837l451 0c52,0 97,-14 136,-42 39,-28 70,-67 92,-115 22,-48 33,-103 33,-164 0,-63 -13,-119 -39,-167 -26,-49 -60,-86 -102,-113 -41,-26 -86,-40 -135,-40l-436 0 0 641z"/>
   <polygon class="fil2" points="4105,2 4268,297 4432,592 4105,592 3777,592 3941,297 "/>
  </g>
 </g>
</svg>
